{
    "asset" : {
        "generator" : "Khronos glTF Blender I/O v1.6.16",
        "version" : "2.0"
    },
    "scene" : 0,
    "scenes" : [
        {
            "name" : "Scene",
            "nodes" : [
                0
            ]
        }
    ],
    "nodes" : [
        {
            "mesh" : 0,
            "name" : "Azul",
            "scale" : [
                4.980894088745117,
                4.980894565582275,
                4.980894088745117
            ]
        }
    ],
    "materials" : [
        {
            "doubleSided" : true,
            "name" : "Traje.002",
            "pbrMetallicRoughness" : {
                "baseColorFactor" : [
                    0,
                    0.024234799668192863,
                    1,
                    1
                ],
                "metallicFactor" : 0,
                "roughnessFactor" : 0.4000000059604645
            }
        },
        {
            "doubleSided" : true,
            "name" : "Gafas.001",
            "pbrMetallicRoughness" : {
                "baseColorFactor" : [
                    0.09601748734712601,
                    0.8041190505027771,
                    0.9638798832893372,
                    1
                ],
                "metallicFactor" : 0,
                "roughnessFactor" : 0
            }
        }
    ],
    "meshes" : [
        {
            "name" : "Cube.003",
            "primitives" : [
                {
                    "attributes" : {
                        "POSITION" : 0,
                        "NORMAL" : 1,
                        "TEXCOORD_0" : 2
                    },
                    "indices" : 3,
                    "material" : 0
                },
                {
                    "attributes" : {
                        "POSITION" : 4,
                        "NORMAL" : 5,
                        "TEXCOORD_0" : 6
                    },
                    "indices" : 7,
                    "material" : 1
                }
            ]
        }
    ],
    "accessors" : [
        {
            "bufferView" : 0,
            "componentType" : 5126,
            "count" : 13909,
            "max" : [
                0.576484203338623,
                0.9714614152908325,
                0.5499742031097412
            ],
            "min" : [
                -0.5764843225479126,
                -1.0273391008377075,
                -0.5935142040252686
            ],
            "type" : "VEC3"
        },
        {
            "bufferView" : 1,
            "componentType" : 5126,
            "count" : 13909,
            "type" : "VEC3"
        },
        {
            "bufferView" : 2,
            "componentType" : 5126,
            "count" : 13909,
            "type" : "VEC2"
        },
        {
            "bufferView" : 3,
            "componentType" : 5123,
            "count" : 71424,
            "type" : "SCALAR"
        },
        {
            "bufferView" : 4,
            "componentType" : 5126,
            "count" : 1213,
            "max" : [
                0.3641813397407532,
                0.6116929054260254,
                0.5719205141067505
            ],
            "min" : [
                -0.36418139934539795,
                0.09092259407043457,
                0.326599657535553
            ],
            "type" : "VEC3"
        },
        {
            "bufferView" : 5,
            "componentType" : 5126,
            "count" : 1213,
            "type" : "VEC3"
        },
        {
            "bufferView" : 6,
            "componentType" : 5126,
            "count" : 1213,
            "type" : "VEC2"
        },
        {
            "bufferView" : 7,
            "componentType" : 5123,
            "count" : 6144,
            "type" : "SCALAR"
        }
    ],
    "bufferViews" : [
        {
            "buffer" : 0,
            "byteLength" : 166908,
            "byteOffset" : 0
        },
        {
            "buffer" : 0,
            "byteLength" : 166908,
            "byteOffset" : 166908
        },
        {
            "buffer" : 0,
            "byteLength" : 111272,
            "byteOffset" : 333816
        },
        {
            "buffer" : 0,
            "byteLength" : 142848,
            "byteOffset" : 445088
        },
        {
            "buffer" : 0,
            "byteLength" : 14556,
            "byteOffset" : 587936
        },
        {
            "buffer" : 0,
            "byteLength" : 14556,
            "byteOffset" : 602492
        },
        {
            "buffer" : 0,
            "byteLength" : 9704,
            "byteOffset" : 617048
        },
        {
            "buffer" : 0,
            "byteLength" : 12288,
            "byteOffset" : 626752
        }
    ],
    "buffers" : [
        {
            "byteLength" : 639040,
            "uri" : "data:application/octet-stream;base64,"
        }
    ]
}
