{
    "asset" : {
        "generator" : "Khronos glTF Blender I/O v1.6.16",
        "version" : "2.0"
    },
    "scene" : 0,
    "scenes" : [
        {
            "name" : "Scene",
            "nodes" : [
                0
            ]
        }
    ],
    "nodes" : [
        {
            "mesh" : 0,
            "name" : "Text",
            "rotation" : [
                0.7071068286895752,
                0,
                0,
                0.7071068286895752
            ],
            "scale" : [
                2.223442554473877,
                2.223442554473877,
                2.223442554473877
            ]
        }
    ],
    "materials" : [
        {
            "doubleSided" : true,
            "emissiveFactor" : [
                1,
                0.1490077365890956,
                0.2618211165186146
            ],
            "name" : "Material.001",
            "pbrMetallicRoughness" : {}
        }
    ],
    "meshes" : [
        {
            "name" : "Text",
            "primitives" : [
                {
                    "attributes" : {
                        "POSITION" : 0,
                        "NORMAL" : 1,
                        "TEXCOORD_0" : 2
                    },
                    "indices" : 3,
                    "material" : 0
                }
            ]
        }
    ],
    "accessors" : [
        {
            "bufferView" : 0,
            "componentType" : 5126,
            "count" : 21080,
            "max" : [
                3.138890266418457,
                0.3285404145717621,
                0.23219755291938782
            ],
            "min" : [
                -3.234536647796631,
                0,
                -0.29889053106307983
            ],
            "type" : "VEC3"
        },
        {
            "bufferView" : 1,
            "componentType" : 5126,
            "count" : 21080,
            "type" : "VEC3"
        },
        {
            "bufferView" : 2,
            "componentType" : 5126,
            "count" : 21080,
            "type" : "VEC2"
        },
        {
            "bufferView" : 3,
            "componentType" : 5123,
            "count" : 33444,
            "type" : "SCALAR"
        }
    ],
    "bufferViews" : [
        {
            "buffer" : 0,
            "byteLength" : 252960,
            "byteOffset" : 0
        },
        {
            "buffer" : 0,
            "byteLength" : 252960,
            "byteOffset" : 252960
        },
        {
            "buffer" : 0,
            "byteLength" : 168640,
            "byteOffset" : 505920
        },
        {
            "buffer" : 0,
            "byteLength" : 66888,
            "byteOffset" : 674560
        }
    ],
    "buffers" : [
        {
            "byteLength" : 741448,
            "uri" : "data:application/octet-stream;base64,"
        }
    ]
}
