{
  "accessors": [
    {
      "bufferView": 2,
      "componentType": 5126,
      "count": 2166,
      "max": [
        8.3026123046875,
        10.735036849975586,
        2.7861599922180176
      ],
      "min": [
        -15.553679466247559,
        -12.259321212768555,
        1.6322599649429321
      ],
      "type": "VEC3"
    },
    {
      "bufferView": 2,
      "byteOffset": 25992,
      "componentType": 5126,
      "count": 2166,
      "max": [
        1.0,
        1.0,
        0.32850125432014465
      ],
      "min": [
        -1.0,
        -1.0,
        -0.18379344046115875
      ],
      "type": "VEC3"
    },
    {
      "bufferView": 1,
      "componentType": 5126,
      "count": 2166,
      "max": [
        0.3254620134830475,
        0.8387359976768494
      ],
      "min": [
        0.29937198758125305,
        0.685230016708374
      ],
      "type": "VEC2"
    },
    {
      "bufferView": 0,
      "componentType": 5125,
      "count": 4350,
      "type": "SCALAR"
    },
    {
      "bufferView": 2,
      "byteOffset": 51984,
      "componentType": 5126,
      "count": 65532,
      "max": [
        8.3026123046875,
        10.735036849975586,
        12.926609992980957
      ],
      "min": [
        -15.553679466247559,
        -12.259321212768555,
        1.6322599649429321
      ],
      "type": "VEC3"
    },
    {
      "bufferView": 2,
      "byteOffset": 838368,
      "componentType": 5126,
      "count": 65532,
      "max": [
        0.9999650716781616,
        0.9997074007987976,
        0.9999996423721313
      ],
      "min": [
        -0.999945878982544,
        -0.9999192953109741,
        -1.0
      ],
      "type": "VEC3"
    },
    {
      "bufferView": 1,
      "byteOffset": 17328,
      "componentType": 5126,
      "count": 65532,
      "max": [
        0.9997389912605286,
        0.9978029727935791
      ],
      "min": [
        0.00024399999529123306,
        0.00025499999173916876
      ],
      "type": "VEC2"
    },
    {
      "bufferView": 0,
      "byteOffset": 17400,
      "componentType": 5125,
      "count": 312183,
      "type": "SCALAR"
    },
    {
      "bufferView": 2,
      "byteOffset": 1624752,
      "componentType": 5126,
      "count": 11374,
      "max": [
        8.3026123046875,
        10.618151664733887,
        12.92120361328125
      ],
      "min": [
        -15.223910331726074,
        -12.156671524047852,
        1.632269024848938
      ],
      "type": "VEC3"
    },
    {
      "bufferView": 2,
      "byteOffset": 1761240,
      "componentType": 5126,
      "count": 11374,
      "max": [
        0.9993485808372498,
        0.9992422461509705,
        0.9999977350234985
      ],
      "min": [
        -0.9999393224716187,
        -0.9986965656280518,
        -1.0
      ],
      "type": "VEC3"
    },
    {
      "bufferView": 1,
      "byteOffset": 541584,
      "componentType": 5126,
      "count": 11374,
      "max": [
        0.9997220039367676,
        0.9958490133285522
      ],
      "min": [
        0.00024399999529123306,
        0.00026500000967644155
      ],
      "type": "VEC2"
    },
    {
      "bufferView": 0,
      "byteOffset": 1266132,
      "componentType": 5125,
      "count": 34947,
      "type": "SCALAR"
    }
  ],
  "asset": {
    "extras": {
      "author": "Austin Beaulier (https://sketchfab.com/Austin.Beaulier)",
      "license": "CC-BY-4.0 (http://creativecommons.org/licenses/by/4.0/)",
      "source": "https://sketchfab.com/3d-models/concrete-statue-east-jesus-e71dd630874c4a9ab72042e3f1f3e8d8",
      "title": "Concrete Statue (East Jesus)"
    },
    "generator": "Sketchfab-12.56.0",
    "version": "2.0"
  },
  "bufferViews": [
    {
      "buffer": 0,
      "byteLength": 1405920,
      "name": "floatBufferViews",
      "target": 34963
    },
    {
      "buffer": 0,
      "byteLength": 632576,
      "byteOffset": 1405920,
      "byteStride": 8,
      "name": "floatBufferViews",
      "target": 34962
    },
    {
      "buffer": 0,
      "byteLength": 1897728,
      "byteOffset": 2038496,
      "byteStride": 12,
      "name": "floatBufferViews",
      "target": 34962
    }
  ],
  "buffers": [
    {
      "byteLength": 3936224,
      "uri": "scene.bin"
    }
  ],
  "extensionsUsed": [
    "KHR_materials_unlit"
  ],
  "images": [
    {
      "uri": "textures/ConcreteStatue4_u1_v1_baseColor.jpeg"
    }
  ],
  "materials": [
    {
      "doubleSided": true,
      "extensions": {
        "KHR_materials_unlit": {}
      },
      "name": "ConcreteStatue4_u1_v1",
      "pbrMetallicRoughness": {
        "baseColorTexture": {
          "index": 0
        },
        "metallicFactor": 0.0
      }
    }
  ],
  "meshes": [
    {
      "name": "Object_0",
      "primitives": [
        {
          "attributes": {
            "NORMAL": 1,
            "POSITION": 0,
            "TEXCOORD_0": 2
          },
          "indices": 3,
          "material": 0,
          "mode": 4
        }
      ]
    },
    {
      "name": "Object_1",
      "primitives": [
        {
          "attributes": {
            "NORMAL": 5,
            "POSITION": 4,
            "TEXCOORD_0": 6
          },
          "indices": 7,
          "material": 0,
          "mode": 4
        }
      ]
    },
    {
      "name": "Object_2",
      "primitives": [
        {
          "attributes": {
            "NORMAL": 9,
            "POSITION": 8,
            "TEXCOORD_0": 10
          },
          "indices": 11,
          "material": 0,
          "mode": 4
        }
      ]
    }
  ],
  "nodes": [
    {
      "children": [
        1
      ],
      "matrix": [
        1.0,
        0.0,
        0.0,
        0.0,
        0.0,
        2.220446049250313e-16,
        -1.0,
        0.0,
        0.0,
        1.0,
        2.220446049250313e-16,
        0.0,
        0.0,
        0.0,
        0.0,
        1.0
      ],
      "name": "Sketchfab_model"
    },
    {
      "children": [
        2,
        3,
        4
      ],
      "name": "ConcreteStatue4.obj.cleaner.materialmerger.gles"
    },
    {
      "mesh": 0,
      "name": "Object_2"
    },
    {
      "mesh": 1,
      "name": "Object_3"
    },
    {
      "mesh": 2,
      "name": "Object_4"
    }
  ],
  "samplers": [
    {
      "magFilter": 9729,
      "minFilter": 9987,
      "wrapS": 10497,
      "wrapT": 10497
    }
  ],
  "scene": 0,
  "scenes": [
    {
      "name": "Sketchfab_Scene",
      "nodes": [
        0
      ]
    }
  ],
  "textures": [
    {
      "sampler": 0,
      "source": 0
    }
  ]
}
