{
  "accessors": [
    {
      "bufferView": 3,
      "componentType": 5126,
      "count": 1791,
      "max": [
        3.1825225353240967,
        18.86969757080078,
        1.7249616384506226
      ],
      "min": [
        -3.4104127883911133,
        11.497307777404785,
        -2.9704322814941406
      ],
      "type": "VEC3"
    },
    {
      "bufferView": 3,
      "byteOffset": 21492,
      "componentType": 5126,
      "count": 1791,
      "max": [
        0.9993662238121033,
        0.9999974370002747,
        0.9999476075172424
      ],
      "min": [
        -0.9984131455421448,
        -0.9976562857627869,
        -0.9992615580558777
      ],
      "type": "VEC3"
    },
    {
      "bufferView": 2,
      "componentType": 5126,
      "count": 1791,
      "max": [
        0.9975600242614746,
        0.9973335266113281
      ],
      "min": [
        0.003571927547454834,
        0.01133495569229126
      ],
      "type": "VEC2"
    },
    {
      "bufferView": 1,
      "componentType": 5125,
      "count": 5784,
      "type": "SCALAR"
    },
    {
      "bufferView": 3,
      "byteOffset": 42984,
      "componentType": 5126,
      "count": 1562,
      "max": [
        1.0788112878799438,
        18.329355239868164,
        1.5545573234558105
      ],
      "min": [
        -1.0788120031356812,
        15.843289375305176,
        0.012199094519019127
      ],
      "type": "VEC3"
    },
    {
      "bufferView": 3,
      "byteOffset": 61728,
      "componentType": 5126,
      "count": 1562,
      "max": [
        0.9986549019813538,
        0.9996109008789063,
        0.9999797344207764
      ],
      "min": [
        -0.9986564517021179,
        -0.9980252981185913,
        -0.9327937364578247
      ],
      "type": "VEC3"
    },
    {
      "bufferView": 2,
      "byteOffset": 14328,
      "componentType": 5126,
      "count": 1562,
      "max": [
        0.9653814435005188,
        0.9965189695358276
      ],
      "min": [
        0.0345994234085083,
        0.0022539496421813965
      ],
      "type": "VEC2"
    },
    {
      "bufferView": 1,
      "byteOffset": 23136,
      "componentType": 5125,
      "count": 6726,
      "type": "SCALAR"
    },
    {
      "bufferView": 3,
      "byteOffset": 80472,
      "componentType": 5126,
      "count": 28606,
      "max": [
        6.318681716918945,
        20.456972122192383,
        1.9024684429168701
      ],
      "min": [
        -6.3186798095703125,
        -0.5177784562110901,
        -2.3254590034484863
      ],
      "type": "VEC3"
    },
    {
      "bufferView": 3,
      "byteOffset": 423744,
      "componentType": 5126,
      "count": 28606,
      "max": [
        0.9998640418052673,
        0.9999908804893494,
        0.9999968409538269
      ],
      "min": [
        -0.9998628497123718,
        -1.0,
        -0.9999860525131226
      ],
      "type": "VEC3"
    },
    {
      "bufferView": 2,
      "byteOffset": 26824,
      "componentType": 5126,
      "count": 28606,
      "max": [
        0.9982839822769165,
        0.998708963394165
      ],
      "min": [
        -0.006174445152282715,
        0.0026862621307373047
      ],
      "type": "VEC2"
    },
    {
      "bufferView": 1,
      "byteOffset": 50040,
      "componentType": 5125,
      "count": 128706,
      "type": "SCALAR"
    },
    {
      "bufferView": 5,
      "componentType": 5126,
      "count": 30,
      "max": [
        1.0,
        0.10940726846456528,
        0.04468659684062004,
        0.0,
        0.08999171108007431,
        1.0,
        0.10940739512443542,
        0.0,
        0.10940717905759811,
        0.10871238261461258,
        1.0,
        0.0,
        1.348949670791626,
        1.1750091314315796,
        0.14817941188812256,
        1.0
      ],
      "min": [
        -0.10940726846456528,
        -0.10940726101398468,
        -0.044686589390039444,
        0.0,
        -0.0899917259812355,
        -0.10912709683179855,
        -0.09636227041482925,
        0.0,
        -0.10940717160701752,
        -0.05754074454307556,
        -0.10939853638410568,
        0.0,
        -1.3474665880203247,
        -1.7575857639312744,
        -1.5934025049209595,
        1.0
      ],
      "type": "MAT4"
    },
    {
      "bufferView": 0,
      "componentType": 5123,
      "count": 1791,
      "type": "VEC4"
    },
    {
      "bufferView": 4,
      "componentType": 5126,
      "count": 1791,
      "max": [
        1.0,
        0.3865218758583069,
        0.264932245016098,
        0.1826060563325882
      ],
      "min": [
        0.33573856949806213,
        0.0,
        0.0,
        0.0
      ],
      "type": "VEC4"
    },
    {
      "bufferView": 0,
      "byteOffset": 14328,
      "componentType": 5123,
      "count": 1562,
      "type": "VEC4"
    },
    {
      "bufferView": 4,
      "byteOffset": 28656,
      "componentType": 5126,
      "count": 1562,
      "max": [
        1.0,
        0.16326679289340973,
        0.013917640782892704,
        0.0
      ],
      "min": [
        0.8239149451255798,
        0.0,
        0.0,
        0.0
      ],
      "type": "VEC4"
    },
    {
      "bufferView": 0,
      "byteOffset": 26824,
      "componentType": 5123,
      "count": 28606,
      "type": "VEC4"
    },
    {
      "bufferView": 4,
      "byteOffset": 53648,
      "componentType": 5126,
      "count": 28606,
      "max": [
        1.0,
        0.49999988079071045,
        0.3137308359146118,
        0.24900127947330475
      ],
      "min": [
        0.2509763240814209,
        0.0,
        0.0,
        0.0
      ],
      "type": "VEC4"
    }
  ],
  "asset": {
    "extras": {
      "author": "The Widowed WarVet (https://sketchfab.com/TheWidowedWarVet)",
      "license": "CC-BY-4.0 (http://creativecommons.org/licenses/by/4.0/)",
      "source": "https://sketchfab.com/3d-models/amber-a5ed8e2244914fd1b8099d3331991ce1",
      "title": "Amber"
    },
    "generator": "Sketchfab-12.57.0",
    "version": "2.0"
  },
  "bufferViews": [
    {
      "buffer": 0,
      "byteLength": 255672,
      "byteStride": 8,
      "name": "shortBufferViews",
      "target": 34962
    },
    {
      "buffer": 0,
      "byteLength": 564864,
      "byteOffset": 255672,
      "name": "floatBufferViews",
      "target": 34963
    },
    {
      "buffer": 0,
      "byteLength": 255672,
      "byteOffset": 820536,
      "byteStride": 8,
      "name": "floatBufferViews",
      "target": 34962
    },
    {
      "buffer": 0,
      "byteLength": 767016,
      "byteOffset": 1076208,
      "byteStride": 12,
      "name": "floatBufferViews",
      "target": 34962
    },
    {
      "buffer": 0,
      "byteLength": 511344,
      "byteOffset": 1843224,
      "byteStride": 16,
      "name": "floatBufferViews",
      "target": 34962
    },
    {
      "buffer": 0,
      "byteLength": 1920,
      "byteOffset": 2354568,
      "name": "floatBufferViews"
    }
  ],
  "buffers": [
    {
      "byteLength": 2356488,
      "uri": "scene.bin"
    }
  ],
  "images": [
    {
      "uri": "textures/Amber_-_Hair_baseColor.png"
    },
    {
      "uri": "textures/Amber_-_Face_baseColor.png"
    },
    {
      "uri": "textures/Amber_-_Body_baseColor.png"
    }
  ],
  "materials": [
    {
      "doubleSided": true,
      "emissiveFactor": [
        1.0,
        1.0,
        1.0
      ],
      "emissiveTexture": {
        "index": 0
      },
      "name": "Amber_-_Hair",
      "pbrMetallicRoughness": {
        "baseColorTexture": {
          "index": 0
        }
      }
    },
    {
      "doubleSided": true,
      "emissiveFactor": [
        1.0,
        1.0,
        1.0
      ],
      "emissiveTexture": {
        "index": 1
      },
      "name": "Amber_-_Face",
      "pbrMetallicRoughness": {
        "baseColorTexture": {
          "index": 1
        }
      }
    },
    {
      "doubleSided": true,
      "emissiveFactor": [
        1.0,
        1.0,
        1.0
      ],
      "emissiveTexture": {
        "index": 2
      },
      "name": "Amber_-_Body",
      "pbrMetallicRoughness": {
        "baseColorTexture": {
          "index": 2
        }
      }
    }
  ],
  "meshes": [
    {
      "name": "Object_0",
      "primitives": [
        {
          "attributes": {
            "JOINTS_0": 13,
            "NORMAL": 1,
            "POSITION": 0,
            "TEXCOORD_0": 2,
            "WEIGHTS_0": 14
          },
          "indices": 3,
          "material": 0,
          "mode": 4
        }
      ]
    },
    {
      "name": "Object_1",
      "primitives": [
        {
          "attributes": {
            "JOINTS_0": 15,
            "NORMAL": 5,
            "POSITION": 4,
            "TEXCOORD_0": 6,
            "WEIGHTS_0": 16
          },
          "indices": 7,
          "material": 1,
          "mode": 4
        }
      ]
    },
    {
      "name": "Object_2",
      "primitives": [
        {
          "attributes": {
            "JOINTS_0": 17,
            "NORMAL": 9,
            "POSITION": 8,
            "TEXCOORD_0": 10,
            "WEIGHTS_0": 18
          },
          "indices": 11,
          "material": 2,
          "mode": 4
        }
      ]
    }
  ],
  "nodes": [
    {
      "children": [
        1
      ],
      "matrix": [
        1.0,
        0.0,
        0.0,
        0.0,
        0.0,
        2.220446049250313e-16,
        -1.0,
        0.0,
        0.0,
        1.0,
        2.220446049250313e-16,
        0.0,
        0.0,
        0.0,
        0.0,
        1.0
      ],
      "name": "Sketchfab_model"
    },
    {
      "children": [
        2
      ],
      "name": "root"
    },
    {
      "children": [
        3
      ],
      "matrix": [
        1.0,
        0.0,
        0.0,
        0.0,
        0.0,
        2.220446049250313e-16,
        1.0,
        0.0,
        0.0,
        -1.0,
        2.220446049250313e-16,
        0.0,
        0.0,
        0.0,
        0.0,
        1.0
      ],
      "name": "GLTF_SceneRootNode"
    },
    {
      "children": [
        4
      ],
      "matrix": [
        9.140151023864746,
        0.0,
        0.0,
        0.0,
        0.0,
        9.140151023864746,
        0.0,
        0.0,
        0.0,
        0.0,
        9.140151023864746,
        0.0,
        0.0,
        0.0,
        0.0,
        1.0
      ],
      "name": "metarig_30"
    },
    {
      "children": [
        5,
        7,
        8,
        9,
        6
      ],
      "name": "GLTF_created_0"
    },
    {
      "children": [
        10
      ],
      "name": "GLTF_created_0_rootJoint"
    },
    {
      "name": "Amber_29"
    },
    {
      "mesh": 0,
      "name": "Object_7",
      "skin": 0
    },
    {
      "mesh": 1,
      "name": "Object_8",
      "skin": 0
    },
    {
      "mesh": 2,
      "name": "Object_9",
      "skin": 0
    },
    {
      "children": [
        11,
        27,
        28,
        29,
        34
      ],
      "name": "spine_28",
      "rotation": [
        -0.04214981198310852,
        1.1910335473430678e-07,
        -5.024649585294583e-09,
        0.9991112947463989
      ],
      "translation": [
        -2.3149658578969223e-10,
        1.1876355409622192,
        0.038014598190784454
      ]
    },
    {
      "children": [
        12
      ],
      "name": "spine.001_15",
      "rotation": [
        -0.14121504127979279,
        -1.5159598576452993e-10,
        -3.3833252643944434e-08,
        0.9899789690971375
      ],
      "translation": [
        -5.984694348166314e-16,
        0.046114902943372726,
        3.9789576078419486e-08
      ]
    },
    {
      "children": [
        13
      ],
      "name": "spine.002_14",
      "rotation": [
        0.1612238734960556,
        1.54907114913172e-10,
        3.860063557681315e-08,
        0.9869178533554077
      ],
      "scale": [
        1.0,
        0.9999999403953552,
        0.9999998807907104
      ],
      "translation": [
        1.4641066137244252e-15,
        0.09603336453437805,
        4.1531166061758995e-08
      ]
    },
    {
      "children": [
        14,
        17,
        21,
        25,
        26
      ],
      "name": "spine.003_13",
      "rotation": [
        0.0714949369430542,
        4.860468139078478e-10,
        1.755353196131182e-08,
        0.9974409937858582
      ],
      "translation": [
        -7.216449660063518e-16,
        0.1167430505156517,
        4.6566123179658803e-10
      ]
    },
    {
      "children": [
        15
      ],
      "name": "spine.004_2",
      "rotation": [
        -0.05177009850740433,
        -3.157553940535962e-10,
        -1.2677902283542153e-08,
        0.9986590147018433
      ],
      "scale": [
        1.0,
        0.9999998807907104,
        0.9999998807907104
      ],
      "translation": [
        -4.077203256003942e-15,
        0.23062144219875336,
        1.9776981829977558e-08
      ]
    },
    {
      "children": [
        16
      ],
      "name": "spine.005_1",
      "rotation": [
        0.010517174378037453,
        -2.8786757422238907e-09,
        -3.8002376245849234e-10,
        0.9999446868896484
      ],
      "scale": [
        1.0,
        0.9999999403953552,
        1.0
      ],
      "translation": [
        -3.2769780376291837e-16,
        0.04518580809235573,
        -2.3281006011899308e-09
      ]
    },
    {
      "name": "spine.006_0",
      "rotation": [
        0.006931822281330824,
        -1.1645409614402524e-07,
        3.495778111428649e-09,
        0.9999759793281555
      ],
      "scale": [
        1.0,
        0.9999999403953552,
        0.9999999403953552
      ],
      "translation": [
        -1.075615905378306e-15,
        0.043364111334085464,
        2.7936095658986915e-09
      ]
    },
    {
      "children": [
        18
      ],
      "name": "shoulder.L_6",
      "rotation": [
        -0.6048398613929749,
        -0.383149117231369,
        -0.296163409948349,
        0.63218092918396
      ],
      "scale": [
        1.0000001192092896,
        1.0000001192092896,
        0.9999998807907104
      ],
      "translation": [
        0.014026397839188576,
        0.17407365143299103,
        0.05888887494802475
      ]
    },
    {
      "children": [
        19
      ],
      "name": "upper_arm.L_5",
      "rotation": [
        -0.17823000252246857,
        0.6474259495735168,
        -0.49285411834716797,
        0.5533250570297241
      ],
      "scale": [
        1.0,
        0.9999995231628418,
        0.9999998211860657
      ],
      "translation": [
        0.0021850066259503365,
        0.1577276885509491,
        -0.018527789041399956
      ]
    },
    {
      "children": [
        20
      ],
      "name": "forearm.L_4",
      "rotation": [
        0.021155722439289093,
        0.045670028775930405,
        0.12765200436115265,
        0.9905411005020142
      ],
      "scale": [
        1.0000001192092896,
        1.0000001192092896,
        1.0
      ],
      "translation": [
        -1.8304594107121375e-07,
        0.2432677149772644,
        8.003631535302702e-09
      ]
    },
    {
      "name": "hand.L_3",
      "rotation": [
        -0.030453231185674667,
        -2.3197684640763327e-05,
        -0.022321995347738266,
        0.9992868900299072
      ],
      "scale": [
        0.9999999403953552,
        0.9999999403953552,
        0.9999998211860657
      ],
      "translation": [
        3.451346430871638e-10,
        0.24541917443275452,
        5.0083395208844195e-09
      ]
    },
    {
      "children": [
        22
      ],
      "name": "shoulder.R_10",
      "rotation": [
        -0.6048399806022644,
        0.38314899802207947,
        0.29616329073905945,
        0.6321809887886047
      ],
      "scale": [
        0.9999999403953552,
        1.0,
        0.9999998807907104
      ],
      "translation": [
        -0.014026399701833725,
        0.17407353222370148,
        0.05888888239860535
      ]
    },
    {
      "children": [
        23
      ],
      "name": "upper_arm.R_9",
      "rotation": [
        -0.18168030679225922,
        -0.6463351845741272,
        0.49458304047584534,
        0.5519337058067322
      ],
      "scale": [
        0.9999999403953552,
        0.9999998807907104,
        0.9999998211860657
      ],
      "translation": [
        -0.002184873213991523,
        0.1577274650335312,
        -0.018527762964367867
      ]
    },
    {
      "children": [
        24
      ],
      "name": "forearm.R_8",
      "rotation": [
        0.02160489186644554,
        -0.046776656061410904,
        -0.13168281316757202,
        0.9899519681930542
      ],
      "scale": [
        1.0,
        0.9999999403953552,
        1.0
      ],
      "translation": [
        -1.2526288628578186e-07,
        0.24158047139644623,
        -7.450580596923828e-09
      ]
    },
    {
      "name": "hand.R_7",
      "rotation": [
        -0.030453231185674667,
        2.319739360245876e-05,
        0.02232198789715767,
        0.999286949634552
      ],
      "scale": [
        1.0,
        1.0,
        0.9999998807907104
      ],
      "translation": [
        3.446280061325524e-08,
        0.24541914463043213,
        4.863023761458862e-09
      ]
    },
    {
      "name": "breast.L_11",
      "rotation": [
        -0.04796641319990158,
        -0.5555971264839172,
        -0.8269907832145691,
        0.07139620929956436
      ],
      "scale": [
        0.9999998211860657,
        1.0,
        0.9999998807907104
      ],
      "translation": [
        0.06257443130016327,
        0.1321495771408081,
        0.050035636872053146
      ]
    },
    {
      "name": "breast.R_12",
      "rotation": [
        -0.04796609655022621,
        0.5555970072746277,
        0.8269907832145691,
        0.07139675319194794
      ],
      "scale": [
        0.9999999403953552,
        0.9999998211860657,
        0.9999997615814209
      ],
      "translation": [
        -0.06257442384958267,
        0.13214948773384094,
        0.050035510212183
      ]
    },
    {
      "name": "pelvis.L_16",
      "rotation": [
        -0.24021093547344208,
        -0.6298184990882874,
        -0.5214837193489075,
        0.5231463313102722
      ],
      "scale": [
        1.0,
        0.9999999403953552,
        1.0
      ],
      "translation": [
        -3.030358897149199e-08,
        -5.8944664260707214e-08,
        5.191686192063116e-09
      ]
    },
    {
      "name": "pelvis.R_17",
      "rotation": [
        -0.24021105468273163,
        0.6298184990882874,
        0.5214837193489075,
        0.523146390914917
      ],
      "scale": [
        1.0000001192092896,
        0.9999999403953552,
        0.9999998807907104
      ],
      "translation": [
        5.0251625083319595e-09,
        -4.879080961472937e-08,
        1.7277997699238767e-08
      ]
    },
    {
      "children": [
        30
      ],
      "name": "thigh.L_22",
      "rotation": [
        -0.998223602771759,
        0.03538711369037628,
        -0.0009066378697752953,
        0.04792327806353569
      ],
      "scale": [
        1.000001072883606,
        0.9999999403953552,
        1.0000020265579224
      ],
      "translation": [
        0.12019472569227219,
        -0.01868358440697193,
        0.0004021439526695758
      ]
    },
    {
      "children": [
        31
      ],
      "name": "shin.L_21",
      "rotation": [
        0.04747522622346878,
        -0.00454688910394907,
        -0.009495953097939491,
        0.9988170266151428
      ],
      "scale": [
        0.9999999403953552,
        1.0,
        1.0
      ],
      "translation": [
        -6.329071045030332e-09,
        0.5467117428779602,
        -8.219076086390942e-09
      ]
    },
    {
      "children": [
        32,
        33
      ],
      "name": "foot.L_20",
      "rotation": [
        -0.5579732656478882,
        0.013515721075236797,
        -0.02179928869009018,
        0.829462468624115
      ],
      "scale": [
        0.9999997615814209,
        0.9999997615814209,
        0.9999998807907104
      ],
      "translation": [
        -2.5794040237059335e-09,
        0.5493279099464417,
        7.307119354038605e-09
      ]
    },
    {
      "name": "toe.L_18",
      "rotation": [
        -5.773240374651323e-08,
        0.9819513559341431,
        -0.18913361430168152,
        1.0105970886797877e-06
      ],
      "scale": [
        0.9999998807907104,
        1.0000003576278687,
        1.0
      ],
      "translation": [
        -7.525760459259345e-09,
        0.11659957468509674,
        5.133412805946591e-09
      ]
    },
    {
      "name": "heel.02.L_19",
      "rotation": [
        0.6857040524482727,
        0.6857059001922607,
        -0.17265203595161438,
        0.1726517379283905
      ],
      "scale": [
        1.0,
        1.0,
        1.0000001192092896
      ],
      "translation": [
        -0.020732201635837555,
        0.010679068975150585,
        0.045449331402778625
      ]
    },
    {
      "children": [
        35
      ],
      "name": "thigh.R_27",
      "rotation": [
        -0.998223602771759,
        -0.03538710996508598,
        0.0009061379241757095,
        0.047923266887664795
      ],
      "scale": [
        1.0000011920928955,
        0.9999998807907104,
        1.000002145767212
      ],
      "translation": [
        -0.12019473314285278,
        -0.018683824688196182,
        0.00040206004632636905
      ]
    },
    {
      "children": [
        36
      ],
      "name": "shin.R_26",
      "rotation": [
        0.04747520759701729,
        0.004546723328530788,
        0.009495952166616917,
        0.998816967010498
      ],
      "scale": [
        0.9999998211860657,
        0.9999999403953552,
        0.9999998807907104
      ],
      "translation": [
        -4.841186562742905e-09,
        0.5467119216918945,
        -3.845460838647341e-09
      ]
    },
    {
      "children": [
        37,
        38
      ],
      "name": "foot.R_25",
      "rotation": [
        -0.5579732656478882,
        -0.013515127822756767,
        0.02179889567196369,
        0.829462468624115
      ],
      "scale": [
        0.9999998211860657,
        0.9999998211860657,
        1.0
      ],
      "translation": [
        6.655603623784145e-09,
        0.5493279695510864,
        3.026671357986288e-09
      ]
    },
    {
      "name": "toe.R_23",
      "rotation": [
        -5.894292698371828e-08,
        0.9819513559341431,
        -0.1891336292028427,
        1.0105970886797877e-06
      ],
      "scale": [
        1.0,
        0.9999998211860657,
        1.0
      ],
      "translation": [
        -3.749388799434428e-09,
        0.11659956723451614,
        1.042994135502795e-08
      ]
    },
    {
      "name": "heel.02.R_24",
      "rotation": [
        0.6857038140296936,
        -0.6857061982154846,
        0.17265254259109497,
        0.17265118658542633
      ],
      "scale": [
        0.9999998807907104,
        1.0,
        0.9999998807907104
      ],
      "translation": [
        0.020732127130031586,
        0.010679075494408607,
        0.04544935002923012
      ]
    }
  ],
  "samplers": [
    {
      "magFilter": 9729,
      "minFilter": 9987,
      "wrapS": 10497,
      "wrapT": 10497
    }
  ],
  "scene": 0,
  "scenes": [
    {
      "name": "Sketchfab_Scene",
      "nodes": [
        0
      ]
    }
  ],
  "skins": [
    {
      "inverseBindMatrices": 12,
      "joints": [
        5,
        10,
        11,
        12,
        13,
        14,
        15,
        16,
        17,
        18,
        19,
        20,
        21,
        22,
        23,
        24,
        25,
        26,
        27,
        28,
        29,
        30,
        31,
        32,
        33,
        34,
        35,
        36,
        37,
        38
      ],
      "skeleton": 5
    }
  ],
  "textures": [
    {
      "sampler": 0,
      "source": 0
    },
    {
      "sampler": 0,
      "source": 1
    },
    {
      "sampler": 0,
      "source": 2
    }
  ]
}
